<svg width="107" height="25" viewBox="0 0 107 25" fill="none" xmlns="http://www.w3.org/2000/svg">
<path d="M1.05843 24V0.118229H7.53092C9.26777 0.118229 10.5297 0.543397 11.3167 1.39373C12.1128 2.23502 12.5108 3.62812 12.5108 5.57304V6.61786C12.5108 7.73958 12.3073 8.64871 11.9002 9.34527C11.5022 10.0418 10.8916 10.4986 10.0684 10.7158C11.1448 10.9871 11.864 11.6249 12.2259 12.629C12.5967 13.6241 12.7822 14.8408 12.7822 16.2791C12.7822 17.826 12.6375 19.1784 12.348 20.3363C12.0585 21.4942 11.5338 22.3943 10.774 23.0366C10.0141 23.6788 8.93307 24 7.53092 24H1.05843ZM5.72622 9.11459H6.7032C7.14646 9.11459 7.43141 8.94271 7.55806 8.59896C7.6847 8.25521 7.74803 7.84361 7.74803 7.36417V4.96242C7.74803 4.1935 7.4088 3.80904 6.73034 3.80904H5.72622V9.11459ZM6.20114 19.7935C7.44046 19.7935 8.06012 19.2055 8.06012 18.0295V15.0443C8.06012 14.3659 7.95609 13.8321 7.74803 13.4432C7.54901 13.0451 7.16908 12.8461 6.60822 12.8461H5.72622V19.7664C5.92524 19.7845 6.08354 19.7935 6.20114 19.7935ZM19.8517 24.2171C15.8353 24.2171 13.827 22.1817 13.827 18.1109V16.4962H18.7119V18.8844C18.7119 19.3457 18.8024 19.7076 18.9833 19.9699C19.1642 20.2323 19.4537 20.3634 19.8517 20.3634C20.5573 20.3634 20.9101 19.8342 20.9101 18.7758C20.9101 17.8893 20.7247 17.229 20.3538 16.7947C19.9829 16.3515 19.5306 15.9263 18.9969 15.5192L16.4052 13.5246C15.591 12.8913 14.9713 12.2219 14.5462 11.5163C14.121 10.8107 13.9084 9.82923 13.9084 8.57182C13.9084 7.40487 14.1843 6.44146 14.7362 5.68159C15.297 4.92172 16.0343 4.35633 16.9479 3.98544C17.8706 3.61455 18.8657 3.42911 19.9331 3.42911C23.8772 3.42911 25.8493 5.39664 25.8493 9.3317V9.71163H20.8287V8.93819C20.8287 8.53111 20.7563 8.13761 20.6116 7.75767C20.4759 7.37774 20.2045 7.18777 19.7975 7.18777C19.1099 7.18777 18.7662 7.54961 18.7662 8.2733C18.7662 9.00604 19.0557 9.58046 19.6346 9.99659L22.647 12.1948C23.5878 12.8732 24.3748 13.6784 25.008 14.6101C25.6503 15.5419 25.9714 16.7812 25.9714 18.3281C25.9714 20.2458 25.4241 21.7068 24.3296 22.7109C23.244 23.715 21.7514 24.2171 19.8517 24.2171ZM27.5454 24V0.118229H34.1129C35.8317 0.118229 37.1253 0.597673 37.9937 1.55656C38.8621 2.5064 39.2963 3.8995 39.2963 5.73587V16.9169C39.2963 19.1784 38.8983 20.9243 38.1023 22.1546C37.3153 23.3848 35.9312 24 33.9501 24H27.5454ZM32.3489 19.78H33.1767C34.0541 19.78 34.4929 19.3548 34.4929 18.5045V6.18365C34.4929 5.38759 34.3843 4.87649 34.1672 4.65033C33.9591 4.41513 33.5295 4.29753 32.8781 4.29753H32.3489V19.78ZM43.1229 24L40.5583 0.118229H45.2261L46.5423 15.1936L47.8856 0.118229H52.3363L53.6118 15.1936L54.8873 0.118229H59.6094L57.0041 24H51.2779L50.0838 12.5069L48.944 24H43.1229ZM61.0342 24V0.118229H70.5869V4.73175H65.8919V9.38597H70.3969V13.8774H65.8919V19.3457H70.8989V24H61.0342ZM71.8352 24L74.142 0.118229H82.2428L84.5088 24H79.9903L79.6511 20.1463H76.7744L76.4759 24H71.8352ZM77.1136 16.3334H79.2847L78.2399 4.18898H78.0228L77.1136 16.3334ZM85.9743 24V0.118229H93.3016C94.5229 0.118229 95.4456 0.398659 96.0698 0.959518C96.6939 1.51133 97.1101 2.2893 97.3181 3.29342C97.5352 4.28849 97.6438 5.45996 97.6438 6.80783C97.6438 8.11047 97.4764 9.15077 97.1417 9.92874C96.8161 10.7067 96.1964 11.2449 95.2827 11.5435C96.0336 11.6973 96.5582 12.0727 96.8568 12.6697C97.1643 13.2577 97.3181 14.0221 97.3181 14.9629V24H92.6096V14.6508C92.6096 13.9543 92.4649 13.5246 92.1754 13.3617C91.895 13.1899 91.4381 13.1039 90.8049 13.1039V24H85.9743ZM90.8321 8.96533H91.9854C92.6458 8.96533 92.976 8.24616 92.976 6.80783C92.976 5.87608 92.9036 5.26547 92.7589 4.97599C92.6141 4.68652 92.3428 4.54178 91.9447 4.54178H90.8321V8.96533Z" fill="black"/>
<path d="M102.538 0C103.213 0 103.817 0.149481 104.348 0.448443C104.891 0.747405 105.311 1.16817 105.61 1.71073C105.909 2.24221 106.059 2.85121 106.059 3.53772C106.059 4.21315 105.909 4.81661 105.61 5.3481C105.311 5.87958 104.891 6.30035 104.348 6.61038C103.817 6.90934 103.213 7.05882 102.538 7.05882C101.862 7.05882 101.253 6.90934 100.711 6.61038C100.179 6.30035 99.7585 5.87958 99.4484 5.3481C99.1495 4.81661 99 4.21315 99 3.53772C99 2.85121 99.1495 2.24221 99.4484 1.71073C99.7585 1.16817 100.179 0.747405 100.711 0.448443C101.253 0.149481 101.862 0 102.538 0ZM102.538 6.21176C103.335 6.21176 103.972 5.96817 104.448 5.48097C104.935 4.9827 105.179 4.33495 105.179 3.53772C105.179 2.72941 104.935 2.08166 104.448 1.59446C103.972 1.09619 103.335 0.847059 102.538 0.847059C101.74 0.847059 101.104 1.09619 100.628 1.59446C100.152 2.08166 99.9135 2.72941 99.9135 3.53772C99.9135 4.34602 100.152 4.99377 100.628 5.48097C101.104 5.96817 101.74 6.21176 102.538 6.21176ZM104.099 2.87336C104.099 3.11696 104.038 3.32734 103.916 3.5045C103.806 3.68166 103.645 3.81453 103.435 3.90311L104.298 5.26505H103.003L102.289 4.01938H102.189V5.26505H101.076V1.71073H102.82C103.208 1.71073 103.518 1.82145 103.75 2.04291C103.983 2.25329 104.099 2.5301 104.099 2.87336ZM102.172 3.18893H102.704C102.781 3.18893 102.848 3.16678 102.903 3.12249C102.958 3.0782 102.986 3.01176 102.986 2.92318C102.986 2.75709 102.892 2.67405 102.704 2.67405H102.172V3.18893Z" fill="black"/>
</svg>
